<svg width="28" height="28" viewBox="0 0 28 28" fill="none" xmlns="http://www.w3.org/2000/svg">
<g clip-path="url(#clip0)">
<path d="M23.0611 18.3239C22.287 17.2135 21.9002 15.9624 21.9002 14.5717C21.9002 13.3041 22.2653 12.1427 22.9938 11.0884C23.3865 10.5163 24.0261 9.85466 24.9123 9.10292C24.329 8.3852 23.7458 7.8243 23.162 7.42035C22.1076 6.6913 20.9128 6.32678 19.578 6.32678C18.7817 6.32678 17.8111 6.51738 16.6672 6.89906C15.5678 7.28043 14.7656 7.47133 14.2611 7.47133C13.8794 7.47133 13.1055 7.30318 11.9389 6.96648C10.7611 6.62989 9.76821 6.46175 8.96054 6.46175C7.03108 6.46175 5.43815 7.26953 4.1818 8.88474C2.91419 10.5226 2.28027 12.6203 2.28027 15.178C2.28027 17.8927 3.10497 20.7138 4.7539 23.6417C6.42521 26.5471 8.11357 28 9.81866 28C10.3908 28 11.1312 27.8092 12.0397 27.4278C12.9485 27.0579 13.7449 26.8726 14.4293 26.8726C15.1582 26.8726 16.0053 27.052 16.9699 27.4108C17.9907 27.7695 18.7761 27.949 19.3257 27.949C20.7615 27.949 22.2032 26.8496 23.6501 24.6509C24.5922 23.2488 25.2822 21.8466 25.7197 20.4443C24.7213 20.1412 23.8352 19.4345 23.0611 18.3239Z" fill="#27AE60"/>
<path d="M17.3398 5.31719C18.0467 4.61048 18.5682 3.83635 18.9049 2.99515C19.23 2.15383 19.3923 1.3909 19.3923 0.70653C19.3923 0.661797 19.3899 0.605631 19.3839 0.538267C19.3788 0.470961 19.3758 0.41503 19.3758 0.370121C19.3645 0.336409 19.3506 0.274703 19.3338 0.18506C19.3171 0.0954181 19.3031 0.0337116 19.2916 0C17.3173 0.460176 15.9152 1.29024 15.085 2.4906C14.2439 3.70215 13.8062 5.1435 13.7725 6.81494C14.5241 6.74758 15.1071 6.65239 15.5224 6.52892C16.1286 6.32695 16.7337 5.92294 17.3398 5.31719Z" fill="#27AE60"/>
</g>
<defs>
<clipPath id="clip0">
<rect width="28" height="28" fill="white"/>
</clipPath>
</defs>
</svg>
