<svg width="157" height="181" viewBox="0 0 157 181" fill="none" xmlns="http://www.w3.org/2000/svg">
<circle cx="12.5" cy="12.5" r="12.5" fill="#F2C94C" fill-opacity="0.2"/>
<circle cx="45.5" cy="12.5" r="12.5" fill="#F2C94C" fill-opacity="0.2"/>
<circle cx="78.5" cy="12.5" r="12.5" fill="#F2C94C" fill-opacity="0.2"/>
<circle cx="111.5" cy="12.5" r="12.5" fill="#F2C94C" fill-opacity="0.2"/>
<circle cx="144.5" cy="12.5" r="12.5" fill="#F2C94C" fill-opacity="0.2"/>
<circle cx="12.5" cy="51.5" r="12.5" fill="#F2C94C" fill-opacity="0.2"/>
<circle cx="45.5" cy="51.5" r="12.5" fill="#F2C94C" fill-opacity="0.2"/>
<circle cx="78.5" cy="51.5" r="12.5" fill="#F2C94C" fill-opacity="0.2"/>
<circle cx="111.5" cy="51.5" r="12.5" fill="#F2C94C" fill-opacity="0.2"/>
<circle cx="144.5" cy="51.5" r="12.5" fill="#F2C94C" fill-opacity="0.2"/>
<circle cx="12.5" cy="90.5" r="12.5" fill="#F2C94C" fill-opacity="0.2"/>
<circle cx="45.5" cy="90.5" r="12.5" fill="#F2C94C" fill-opacity="0.2"/>
<circle cx="78.5" cy="90.5" r="12.5" fill="#F2C94C" fill-opacity="0.2"/>
<circle cx="111.5" cy="90.5" r="12.5" fill="#F2C94C" fill-opacity="0.2"/>
<circle cx="144.5" cy="90.5" r="12.5" fill="#F2C94C" fill-opacity="0.2"/>
<circle cx="12.5" cy="129.5" r="12.5" fill="#F2C94C" fill-opacity="0.2"/>
<circle cx="45.5" cy="129.5" r="12.5" fill="#F2C94C" fill-opacity="0.2"/>
<circle cx="78.5" cy="129.5" r="12.5" fill="#F2C94C" fill-opacity="0.2"/>
<circle cx="111.5" cy="129.5" r="12.5" fill="#F2C94C" fill-opacity="0.2"/>
<circle cx="144.5" cy="129.5" r="12.5" fill="#F2C94C" fill-opacity="0.2"/>
<circle cx="12.5" cy="168.5" r="12.5" fill="#F2C94C" fill-opacity="0.2"/>
<circle cx="45.5" cy="168.5" r="12.5" fill="#F2C94C" fill-opacity="0.2"/>
<circle cx="78.5" cy="168.5" r="12.5" fill="#F2C94C" fill-opacity="0.2"/>
<circle cx="111.5" cy="168.5" r="12.5" fill="#F2C94C" fill-opacity="0.2"/>
<circle cx="144.5" cy="168.5" r="12.5" fill="#F2C94C" fill-opacity="0.2"/>
</svg>
