<svg width="28" height="28" viewBox="0 0 28 28" fill="none" xmlns="http://www.w3.org/2000/svg">
<g clip-path="url(#clip0)">
<path d="M2.07865 1.03113C1.74645 1.46927 1.56152 2.00824 1.56152 2.58502V25.4145C1.56152 25.9503 1.72163 26.4536 2.0108 26.874L14.4569 13.9173L2.07865 1.03113Z" fill="#27AE60"/>
<path d="M15.5964 12.7309L19.6341 8.52764L5.44122 0.349504C4.82521 -0.00553749 4.11845 -0.089705 3.45898 0.0952927L15.5964 12.7309Z" fill="#27AE60"/>
<path d="M15.5965 15.1036L3.33643 27.8668C3.60077 27.9554 3.87431 28.0001 4.14807 28.0001C4.5922 28.0001 5.03655 27.8834 5.44131 27.6502L19.7363 19.4131L15.5965 15.1036Z" fill="#27AE60"/>
<path d="M25.2509 11.7643L21.1015 9.37317L16.7363 13.9171L21.2034 18.5677L25.2509 16.2354C26.0608 15.7688 26.5443 14.9329 26.5443 13.9998C26.5443 13.0665 26.0608 12.2308 25.2509 11.7643Z" fill="#27AE60"/>
</g>
<defs>
<clipPath id="clip0">
<rect width="28" height="28" fill="white"/>
</clipPath>
</defs>
</svg>
