<svg width="89" height="89" viewBox="0 0 89 89" fill="none" xmlns="http://www.w3.org/2000/svg">
<path d="M70.201 70.201C73.385 73.385 78.622 73.4174 81.1727 69.7064C83.1951 66.764 84.8618 63.5806 86.1302 60.2219C88.3622 54.3118 89.3102 47.9941 88.9111 41.6892C88.5121 35.3843 86.7752 29.2366 83.8159 23.6551C80.8566 18.0735 76.7428 13.1861 71.7481 9.31774C66.7534 5.44942 60.9923 2.68892 54.8479 1.21986C48.7036 -0.249202 42.3169 -0.393151 36.1126 0.797587C29.9083 1.98832 24.0286 4.48645 18.8647 8.12581C15.93 10.1941 13.2647 12.604 10.9217 15.2982C7.96674 18.696 9.30799 23.7584 13.1873 26.0448C17.0666 28.3312 22.0047 26.9187 25.3025 23.8525C26.2304 22.9897 27.2178 22.1884 28.2586 21.4548C31.5302 19.1491 35.2553 17.5664 39.1861 16.812C43.1169 16.0576 47.1632 16.1488 51.056 17.0795C54.9488 18.0103 58.5988 19.7592 61.7632 22.21C64.9277 24.6608 67.534 27.7573 69.4089 31.2935C71.2838 34.8298 72.3842 38.7247 72.637 42.7192C72.8898 46.7137 72.2892 50.7163 70.8751 54.4607C70.4253 55.6519 69.8964 56.8083 69.2931 57.9226C67.1493 61.8824 67.0169 67.0169 70.201 70.201Z" fill="#F2C94C"/>
<path d="M51.8716 36.2001C52.3653 36.2001 52.764 36.371 53.0678 36.7127C53.4096 37.0545 53.5804 37.4722 53.5804 37.9658V63.5978C53.5804 64.0915 53.4096 64.5092 53.0678 64.851C52.764 65.1547 52.3653 65.3066 51.8716 65.3066C51.378 65.3066 50.9603 65.1547 50.6185 64.851C50.3147 64.5092 50.1628 64.0915 50.1628 63.5978V59.7815C49.2135 61.4903 47.7895 62.9333 45.8908 64.1105C43.9922 65.2877 41.9226 65.8762 39.6822 65.8762C37.138 65.8762 34.8406 65.2117 32.79 63.8826C30.7775 62.5536 29.1826 60.7309 28.0054 58.4145C26.8662 56.0981 26.2966 53.4969 26.2966 50.611C26.2966 47.725 26.8852 45.1428 28.0624 42.8644C29.2395 40.548 30.8344 38.7443 32.847 37.4532C34.8976 36.1621 37.157 35.5166 39.6252 35.5166C41.9036 35.5166 43.9922 36.0672 45.8908 37.1684C47.7895 38.2696 49.2135 39.7126 50.1628 41.4974V37.9658C50.1628 37.4722 50.3147 37.0545 50.6185 36.7127C50.9603 36.371 51.378 36.2001 51.8716 36.2001ZM40.024 62.6865C41.9986 62.6865 43.7643 62.1738 45.3212 61.1486C46.9161 60.0853 48.1503 58.6423 49.0236 56.8196C49.935 54.9589 50.3907 52.8894 50.3907 50.611C50.3907 48.4085 49.935 46.3959 49.0236 44.5732C48.1503 42.7505 46.9161 41.3265 45.3212 40.3012C43.7643 39.2379 41.9986 38.7063 40.024 38.7063C38.0493 38.7063 36.2646 39.219 34.6697 40.2442C33.1128 41.2695 31.8787 42.6935 30.9673 44.5162C30.0939 46.301 29.6572 48.3326 29.6572 50.611C29.6572 52.8894 30.0939 54.9589 30.9673 56.8196C31.8407 58.6423 33.0559 60.0853 34.6128 61.1486C36.2076 62.1738 38.0114 62.6865 40.024 62.6865Z" fill="white"/>
<path d="M53.0678 36.7127L50.407 39.0779L50.4765 39.156L50.5505 39.23L53.0678 36.7127ZM53.0678 64.851L55.5851 67.3683L55.5851 67.3683L53.0678 64.851ZM50.6185 64.851L47.9577 67.2161L48.0969 67.3726L48.2534 67.5117L50.6185 64.851ZM50.1628 59.7815H53.7228V46.043L47.0508 58.0526L50.1628 59.7815ZM45.8908 64.1105L47.7667 67.1361L45.8908 64.1105ZM32.79 63.8826L30.8283 66.8533L30.841 66.8617L30.8538 66.87L32.79 63.8826ZM28.0054 58.4145L24.8108 59.9856L24.8211 60.0065L24.8317 60.0273L28.0054 58.4145ZM28.0624 42.8644L31.2252 44.4985L31.2306 44.4879L31.236 44.4773L28.0624 42.8644ZM32.847 37.4532L30.9502 34.4406L30.9374 34.4486L30.9248 34.4568L32.847 37.4532ZM45.8908 37.1684L47.677 34.0889H47.677L45.8908 37.1684ZM50.1628 41.4974L47.0198 43.1692L53.7228 41.4974H50.1628ZM50.6185 36.7127L48.1012 34.1954L48.0272 34.2694L47.9577 34.3476L50.6185 36.7127ZM45.3212 61.1486L47.2792 64.1218L47.2876 64.1162L47.296 64.1107L45.3212 61.1486ZM49.0236 56.8196L45.8265 55.2537L45.8198 55.2674L45.8132 55.2813L49.0236 56.8196ZM49.0236 44.5732L45.8132 46.1115L45.8261 46.1385L45.8395 46.1653L49.0236 44.5732ZM45.3212 40.3012L43.3135 43.2411L43.3545 43.269L43.3961 43.2958L45.3212 40.3012ZM34.6697 40.2442L32.7446 37.2496L32.7281 37.2602L32.7118 37.271L34.6697 40.2442ZM30.9673 44.5162L27.7832 42.9242L27.7764 42.9378L27.7697 42.9514L30.9673 44.5162ZM30.9673 56.8196L27.7447 58.3323L27.7507 58.3451L27.7569 58.3579L30.9673 56.8196ZM34.6128 61.1486L32.6051 64.0884L32.646 64.1164L32.6877 64.1432L34.6128 61.1486ZM51.8716 39.7601C51.7026 39.7601 51.4394 39.7293 51.1386 39.6004C50.8309 39.4686 50.5836 39.2765 50.407 39.0779L55.7286 34.3476C54.6909 33.1803 53.291 32.6401 51.8716 32.6401V39.7601ZM50.5505 39.23C50.4111 39.0906 50.2633 38.8893 50.1573 38.6303C50.052 38.3727 50.0204 38.1377 50.0204 37.9658H57.1404C57.1404 36.5506 56.6103 35.2206 55.5851 34.1954L50.5505 39.23ZM50.0204 37.9658V63.5978H57.1404V37.9658H50.0204ZM50.0204 63.5978C50.0204 63.426 50.052 63.191 50.1573 62.9334C50.2633 62.6744 50.4111 62.4731 50.5505 62.3337L55.5851 67.3683C56.6103 66.343 57.1404 65.013 57.1404 63.5978H50.0204ZM50.5505 62.3337C50.751 62.1332 51.0005 61.97 51.2736 61.8659C51.5372 61.7655 51.7523 61.7466 51.8716 61.7466V68.8666C53.1568 68.8666 54.513 68.4404 55.5851 67.3683L50.5505 62.3337ZM51.8716 61.7466C51.9941 61.7466 52.1829 61.7664 52.4047 61.8471C52.6308 61.9293 52.8283 62.0521 52.9837 62.1902L48.2534 67.5117C49.301 68.4429 50.5814 68.8666 51.8716 68.8666V61.7466ZM53.2793 62.4858C53.4174 62.6412 53.5402 62.8387 53.6224 63.0648C53.7031 63.2866 53.7228 63.4754 53.7228 63.5978H46.6028C46.6028 64.8881 47.0266 66.1685 47.9577 67.2161L53.2793 62.4858ZM53.7228 63.5978V59.7815H46.6028V63.5978H53.7228ZM47.0508 58.0526C46.4361 59.1591 45.4724 60.1812 44.0149 61.0848L47.7667 67.1361C50.1066 65.6854 51.9909 63.8216 53.2748 61.5104L47.0508 58.0526ZM44.0149 61.0848C42.6813 61.9117 41.2618 62.3162 39.6822 62.3162V69.4362C42.5835 69.4362 45.303 68.6637 47.7667 67.1361L44.0149 61.0848ZM39.6822 62.3162C37.7953 62.3162 36.1757 61.8347 34.7263 60.8953L30.8538 66.87C33.5055 68.5887 36.4806 69.4362 39.6822 69.4362V62.3162ZM34.7518 60.9119C33.2936 59.949 32.0991 58.6119 31.1791 56.8016L24.8317 60.0273C26.2661 62.8498 28.2613 65.1582 30.8283 66.8533L34.7518 60.9119ZM31.2 56.8434C30.3283 55.0709 29.8566 53.0171 29.8566 50.611H22.7366C22.7366 53.9768 23.4041 57.1253 24.8108 59.9856L31.2 56.8434ZM29.8566 50.611C29.8566 48.2215 30.3402 46.2114 31.2252 44.4985L24.8996 41.2303C23.4302 44.0742 22.7366 47.2285 22.7366 50.611H29.8566ZM31.236 44.4773C32.1521 42.6747 33.3351 41.3697 34.7692 40.4496L30.9248 34.4568C28.3337 36.1189 26.3269 38.4214 24.8887 41.2515L31.236 44.4773ZM34.7438 40.4658C36.2153 39.5393 37.815 39.0766 39.6252 39.0766V31.9566C36.4989 31.9566 33.5798 32.7849 30.9502 34.4406L34.7438 40.4658ZM39.6252 39.0766C41.3012 39.0766 42.7698 39.4737 44.1047 40.2479L47.677 34.0889C45.2145 32.6607 42.506 31.9566 39.6252 31.9566V39.0766ZM44.1047 40.2479C45.4797 41.0454 46.4092 42.0212 47.0198 43.1692L53.3059 39.8255C52.0178 37.404 50.0993 35.4938 47.677 34.0889L44.1047 40.2479ZM53.7228 41.4974V37.9658H46.6028V41.4974H53.7228ZM53.7228 37.9658C53.7228 38.0883 53.7031 38.2771 53.6224 38.4989C53.5402 38.725 53.4174 38.9225 53.2793 39.0779L47.9577 34.3476C47.0266 35.3952 46.6028 36.6756 46.6028 37.9658H53.7228ZM53.1358 39.23C52.9964 39.3694 52.7951 39.5172 52.5361 39.6232C52.2785 39.7285 52.0435 39.7601 51.8716 39.7601V32.6401C50.4564 32.6401 49.1264 33.1702 48.1012 34.1954L53.1358 39.23ZM40.024 66.2465C42.6512 66.2465 45.1059 65.553 47.2792 64.1218L43.3633 58.1754C42.4228 58.7947 41.3459 59.1265 40.024 59.1265V66.2465ZM47.296 64.1107C49.4526 62.6729 51.0999 60.7249 52.2341 58.3579L45.8132 55.2813C45.2006 56.5597 44.3796 57.4977 43.3465 58.1865L47.296 64.1107ZM52.2207 58.3855C53.3939 55.9904 53.9507 53.3773 53.9507 50.611H46.8307C46.8307 52.4014 46.4761 53.9275 45.8265 55.2537L52.2207 58.3855ZM53.9507 50.611C53.9507 47.9014 53.3859 45.3374 52.2078 42.9811L45.8395 46.1653C46.4841 47.4545 46.8307 48.9156 46.8307 50.611H53.9507ZM52.2341 43.0349C51.0952 40.6579 49.4334 38.7126 47.2463 37.3066L43.3961 43.2958C44.3989 43.9404 45.2054 44.843 45.8132 46.1115L52.2341 43.0349ZM47.3289 37.3613C45.1515 35.8743 42.6791 35.1463 40.024 35.1463V42.2663C41.3181 42.2663 42.3772 42.6016 43.3135 43.2411L47.3289 37.3613ZM40.024 35.1463C37.3965 35.1463 34.9383 35.8394 32.7446 37.2496L36.5948 43.2388C37.5909 42.5985 38.7022 42.2663 40.024 42.2663V35.1463ZM32.7118 37.271C30.5838 38.6724 28.9478 40.5949 27.7832 42.9242L34.1515 46.1083C34.8096 44.7921 35.6419 43.8666 36.6277 43.2174L32.7118 37.271ZM27.7697 42.9514C26.6251 45.2902 26.0972 47.8699 26.0972 50.611H33.2172C33.2172 48.7953 33.5627 47.3117 34.165 46.081L27.7697 42.9514ZM26.0972 50.611C26.0972 53.355 26.626 55.949 27.7447 58.3323L34.19 55.3069C33.5618 53.9688 33.2172 52.4237 33.2172 50.611H26.0972ZM27.7569 58.3579C28.8807 60.7034 30.4937 62.6465 32.6051 64.0884L36.6205 58.2087C35.618 57.5241 34.8007 56.5812 34.1778 55.2813L27.7569 58.3579ZM32.6877 64.1432C34.8927 65.5607 37.3727 66.2465 40.024 66.2465V59.1265C38.65 59.1265 37.5226 58.787 36.5379 58.154L32.6877 64.1432Z" fill="white"/>
</svg>
